<?xml version="1.0" encoding="UTF-8" standalone="no"?>
<svg
   xmlns:dc="http://purl.org/dc/elements/1.1/"
   xmlns:cc="http://creativecommons.org/ns#"
   xmlns:rdf="http://www.w3.org/1999/02/22-rdf-syntax-ns#"
   xmlns:svg="http://www.w3.org/2000/svg"
   xmlns="http://www.w3.org/2000/svg"
   version="1.1"
   id="svg2"
   viewBox="0 0 40.724199 39.718618"
   height="0.44131798in"
   width="0.4524911in">
  <defs
     id="defs4" />
  <metadata
     id="metadata7">
    <rdf:RDF>
      <cc:Work
         rdf:about="">
        <dc:format>image/svg+xml</dc:format>
        <dc:type
           rdf:resource="http://purl.org/dc/dcmitype/StillImage" />
        <dc:title></dc:title>
      </cc:Work>
    </rdf:RDF>
  </metadata>
  <script type="text/ecmascript" id="script"><![CDATA[
function setColor(c)
{
	document.getElementById("github").style.fill=c;
}
  ]]></script>
  <g
     transform="translate(0,-1012.6436)"
     id="layer1">
    <path
       d="m 20.36,1012.6436 c -11.2425,0 -20.36,9.1163 -20.36,20.3625 0,8.995 5.8337,16.6275 13.925,19.3213 1.0187,0.1862 1.39,-0.4425 1.39,-0.9825 0,-0.4838 -0.017,-1.7638 -0.027,-3.4625 -5.6638,1.23 -6.8588,-2.73 -6.8588,-2.73 -0.9262,-2.3525 -2.2612,-2.9788 -2.2612,-2.9788 -1.8488,-1.2625 0.14,-1.2375 0.14,-1.2375 2.0437,0.1438 3.1187,2.0988 3.1187,2.0988 1.8163,3.1112 4.7663,2.2125 5.9263,1.6912 0.185,-1.315 0.7112,-2.2125 1.2925,-2.7212 -4.5213,-0.515 -9.275,-2.2613 -9.275,-10.0638 0,-2.2237 0.7937,-4.04 2.0962,-5.4637 -0.21,-0.515 -0.9087,-2.585 0.2,-5.3888 0,0 1.7088,-0.5475 5.5988,2.0863 1.6237,-0.4513 3.3662,-0.6763 5.0975,-0.685 1.73,0.01 3.4712,0.2337 5.0975,0.685 3.8875,-2.6338 5.5937,-2.0863 5.5937,-2.0863 1.1113,2.8038 0.4125,4.8738 0.2038,5.3888 1.305,1.4237 2.0925,3.24 2.0925,5.4637 0,7.8225 -4.7613,9.5438 -9.2963,10.0475 0.73,0.6288 1.3813,1.8713 1.3813,3.7713 0,2.7212 -0.025,4.9175 -0.025,5.585 0,0.545 0.3675,1.1787 1.4,0.98 8.085,-2.6988 13.9137,-10.325 13.9137,-19.3188 0,-11.2462 -9.1175,-20.3625 -20.3637,-20.3625"
       style="fill:#1b1817;fill-opacity:1;fill-rule:evenodd;stroke:none"
       id="github" />
  </g>
</svg>
