<?xml version="1.0" encoding="UTF-8" standalone="no"?>
<svg
   xmlns:dc="http://purl.org/dc/elements/1.1/"
   xmlns:cc="http://creativecommons.org/ns#"
   xmlns:rdf="http://www.w3.org/1999/02/22-rdf-syntax-ns#"
   xmlns:svg="http://www.w3.org/2000/svg"
   xmlns="http://www.w3.org/2000/svg"
   height="100.00795"
   width="100.00001"
   id="svg2"
   xml:space="preserve"
   enable-background="new -52.965 -55.577 1024 1024"
   viewBox="-52.965 -55.577 100.00001 100.00795"
   y="0px"
   x="0px"
   version="1.1"><metadata
     id="metadata90"><rdf:RDF><cc:Work
         rdf:about=""><dc:format>image/svg+xml</dc:format><dc:type
           rdf:resource="http://purl.org/dc/dcmitype/StillImage" /><dc:title></dc:title></cc:Work></rdf:RDF></metadata><defs
     id="defs88" />
  <script id="script" type="text/ecmascript"><![CDATA[
function setColor(c)
{
	var layer=document.getElementById("link")
	var elem=layer.firstElementChild
	while(elem!=null)
	{
		elem.style.fill=c
		elem=elem.nextElementSibling
	}
}

  ]]></script>
<g transform="matrix(0.11156018,0,0,0.11156018,-54.768079,-56.692576)" id="link">
<path
       d="m 487.115,285.404 c 34.938,-34.938 69.875,-69.875 104.813,-104.813 9.094,-9.094 18.188,-18.187 27.281,-27.281 6.219,-6.219 12.3,-12.499 19.258,-17.925 -4.093,3.184 -8.187,6.368 -12.279,9.552 7.562,-5.742 15.705,-10.502 24.423,-14.263 -4.95,2.066 -9.901,4.132 -14.853,6.198 9.418,-3.922 19.209,-6.569 29.318,-7.937 -5.32,0.686 -10.641,1.372 -15.962,2.058 10.055,-1.235 20.128,-1.173 30.166,0.185 -5.137,-0.711 -10.273,-1.422 -15.41,-2.133 9.634,1.423 18.964,4.008 27.953,7.752 -4.719,-1.973 -9.438,-3.946 -14.157,-5.919 8.718,3.76 16.861,8.521 24.422,14.263 -4.068,-3.1 -8.137,-6.201 -12.205,-9.301 7.252,5.656 13.583,12.25 20.068,18.736 9.633,9.633 19.266,19.265 28.897,28.898 9.708,9.707 19.415,19.415 29.122,29.122 6.644,6.644 13.424,13.122 19.217,20.549 -3.184,-4.093 -6.368,-8.186 -9.552,-12.279 5.742,7.561 10.503,15.704 14.263,24.422 -2.065,-4.951 -4.132,-9.901 -6.198,-14.852 3.923,9.417 6.569,19.209 7.938,29.318 -0.687,-5.32 -1.372,-10.641 -2.059,-15.961 1.235,10.054 1.174,20.127 -0.184,30.166 0.711,-5.137 1.422,-10.273 2.133,-15.41 -1.424,9.634 -4.008,18.963 -7.753,27.954 1.973,-4.719 3.946,-9.438 5.919,-14.158 -3.761,8.718 -8.521,16.861 -14.263,24.423 3.101,-4.068 6.2,-8.137 9.301,-12.205 -11.779,15.103 -26.826,28.158 -40.325,41.658 -22.582,22.582 -45.164,45.164 -67.745,67.746 -13.982,13.982 -27.965,27.965 -41.947,41.947 -23.09,23.09 -22.716,61.984 0.455,84.865 23.342,23.05 61.73,22.681 84.865,-0.455 34.938,-34.938 69.875,-69.875 104.812,-104.813 12.543,-12.543 25.324,-24.891 37.622,-37.676 11.33,-11.78 21.58,-25.666 28.833,-40.39 7.118,-14.45 13.224,-29.868 15.786,-45.85 1.61,-10.042 3.176,-20.269 3.425,-30.476 0.266,-10.861 -1.516,-21.715 -2.964,-32.424 -2.241,-16.565 -8.463,-31.504 -15.26,-46.732 -13.459,-30.151 -40.327,-53.108 -63.31,-76.09 -11.019,-11.019 -22.038,-22.038 -33.057,-33.057 -6.96,-6.96 -13.747,-14.243 -21.358,-20.502 -7.94,-6.53 -16.287,-12.974 -25.112,-18.346 -9.188,-5.592 -19.35,-9.354 -29.233,-13.47 -15.021,-6.257 -31.48,-8.411 -47.541,-9.986 -16.175,-1.586 -33.023,0.737 -48.814,3.87 -16.026,3.18 -31.853,9.96 -46.119,17.676 -23.677,12.805 -42.055,33.04 -60.852,51.836 -38.368,38.368 -76.737,76.736 -115.105,115.104 -0.664,0.665 -1.329,1.329 -1.993,1.993 -23.09,23.09 -22.716,61.985 0.455,84.865 23.341,23.053 61.729,22.684 84.865,-0.452 l 0,0 z"
       id="path50" /><path
       d="m 441.586,631.042 c -34.938,34.938 -69.875,69.875 -104.813,104.813 -9.094,9.094 -18.187,18.188 -27.281,27.281 -6.219,6.219 -12.301,12.498 -19.258,17.925 4.093,-3.184 8.186,-6.368 12.279,-9.552 -7.561,5.742 -15.705,10.502 -24.423,14.263 4.951,-2.066 9.902,-4.132 14.853,-6.198 -9.417,3.923 -19.209,6.569 -29.318,7.937 5.321,-0.686 10.641,-1.372 15.962,-2.058 -10.054,1.234 -20.128,1.173 -30.166,-0.186 5.137,0.711 10.273,1.422 15.41,2.133 -9.633,-1.424 -18.963,-4.008 -27.953,-7.752 4.719,1.973 9.438,3.946 14.158,5.919 -8.718,-3.761 -16.861,-8.521 -24.422,-14.263 4.068,3.1 8.137,6.2 12.205,9.301 -7.252,-5.656 -13.583,-12.25 -20.068,-18.736 -9.632,-9.632 -19.265,-19.265 -28.897,-28.896 -9.708,-9.708 -19.415,-19.415 -29.122,-29.122 -6.644,-6.644 -13.424,-13.122 -19.217,-20.55 3.184,4.094 6.368,8.187 9.552,12.279 -5.742,-7.562 -10.502,-15.705 -14.263,-24.423 2.066,4.951 4.132,9.901 6.198,14.853 -3.922,-9.417 -6.569,-19.209 -7.937,-29.318 0.686,5.321 1.372,10.642 2.058,15.962 -1.235,-10.054 -1.173,-20.128 0.185,-30.166 -0.711,5.137 -1.422,10.273 -2.133,15.41 1.423,-9.634 4.008,-18.964 7.752,-27.953 -1.973,4.719 -3.946,9.438 -5.919,14.157 3.76,-8.718 8.521,-16.861 14.263,-24.422 -3.1,4.068 -6.201,8.137 -9.301,12.205 11.78,-15.104 26.826,-28.159 40.325,-41.658 22.582,-22.582 45.164,-45.164 67.746,-67.746 13.982,-13.982 27.965,-27.965 41.947,-41.947 23.09,-23.09 22.716,-61.985 -0.455,-84.865 -23.342,-23.05 -61.73,-22.68 -84.865,0.455 -34.938,34.938 -69.875,69.875 -104.813,104.813 -12.543,12.543 -25.324,24.891 -37.622,37.676 -11.33,11.779 -21.58,25.666 -28.833,40.39 -7.118,14.45 -13.224,29.868 -15.786,45.85 -1.61,10.042 -3.176,20.269 -3.425,30.476 -0.266,10.861 1.515,21.715 2.964,32.424 2.241,16.564 8.462,31.504 15.26,46.732 13.459,30.151 40.327,53.107 63.309,76.09 11.019,11.019 22.038,22.038 33.057,33.057 6.96,6.96 13.748,14.242 21.358,20.502 7.94,6.529 16.287,12.974 25.113,18.346 9.188,5.592 19.35,9.354 29.233,13.471 15.022,6.257 31.48,8.411 47.542,9.985 16.174,1.586 33.024,-0.737 48.814,-3.87 16.026,-3.18 31.853,-9.96 46.12,-17.676 23.676,-12.804 42.055,-33.039 60.851,-51.836 38.368,-38.368 76.736,-76.736 115.104,-115.104 0.665,-0.665 1.329,-1.329 1.993,-1.993 23.09,-23.09 22.716,-61.984 -0.455,-84.865 -23.342,-23.055 -61.731,-22.685 -84.866,0.45 l 0,0 z"
       id="path44" /><path
       d="m 399.211,606.113 c 27.2,-26.964 54.399,-53.928 81.598,-80.892 43.69,-43.312 87.38,-86.623 131.069,-129.934 10.489,-10.398 20.978,-20.796 31.467,-31.194 23.191,-22.99 22.639,-62.061 -0.455,-84.865 -23.417,-23.124 -61.631,-22.579 -84.865,0.455 -27.199,26.964 -54.399,53.928 -81.599,80.892 -43.689,43.312 -87.379,86.623 -131.069,129.934 -10.489,10.398 -20.978,20.796 -31.467,31.194 -23.191,22.99 -22.639,62.061 0.455,84.865 23.418,23.124 61.631,22.578 84.866,-0.455 l 0,0 z"
       id="path56" /></g></svg>
